<?xml version="1.0" encoding="iso-8859-1"?>
<!-- Generator: Adobe Illustrator 19.0.0, SVG Export Plug-In . SVG Version: 6.00 Build 0)  -->
<svg version="1.1" id="Layer_1" xmlns="http://www.w3.org/2000/svg" xmlns:xlink="http://www.w3.org/1999/xlink" x="0px" y="0px"
	 viewBox="0 0 512.002 512.002" style="enable-background:new 0 0 512.002 512.002;" xml:space="preserve">
<g>
	<g>
		<path fill="#555" d="M332.426,342.429c-3.664-2.052-8.298-0.744-10.349,2.919c-1.301,2.323-3.739,3.765-6.363,3.765H196.641
			c-2.742,0-5.308-1.609-6.539-4.099c-1.86-3.764-6.421-5.31-10.185-3.448c-3.764,1.86-5.308,6.421-3.448,10.185
			c3.773,7.636,11.692,12.57,20.172,12.57h119.073c8.122,0,15.643-4.422,19.631-11.542
			C337.397,349.115,336.09,344.482,332.426,342.429z"/>
	</g>
</g>
<g>
	<g>
		<path fill="#555" d="M151.698,139.571l-3.082-4.465c-2.39-3.453-7.125-4.318-10.579-1.927c-3.453,2.388-4.317,7.124-1.928,10.578l3.075,4.454
			c1.476,2.137,6.648,4.597,10.577,1.937C153.239,147.795,154.084,143.027,151.698,139.571z"/>
	</g>
</g>
<g>
	<g>
		<path fill="#555" d="M511.11,267.478c-3.6-9.073-15.77-8.857-20.364-8.787c-7.654,0.131-17.451,1.417-28.794,2.908
			c-2.547,0.335-5.179,0.679-7.86,1.021c2.472-0.317,4.423-10.33-4.747-11.753c2.564-3.196,5.027-6.457,7.376-9.742l7.604,1.573
			c5.596,0.761,8.243-2.313,8.987-5.906c0.851-4.113-1.793-8.135-5.906-8.987l-1.681-0.348c2.357-3.907,4.499-7.767,6.391-11.516
			l6.064,1.255c5.427,1.171,8.243-2.313,8.987-5.906c0.851-4.113-1.794-8.135-5.906-8.987l-2.997-0.62
			c2.102-6.068,5.596-17.787-0.898-25.658c-6.213-7.531-18.008-1.703-22.177,0.234c-6.942,3.226-59.159,33.973-59.704,34.279
			c1.042-2.87,2.007-5.71,2.889-8.511h8.555c4.199,0,7.604-3.403,7.604-7.604s-3.404-7.604-7.604-7.604h-3.809
			c1.276-4.681,2.397-9.396,3.347-14.075h6.339c4.199,0,7.604-3.403,7.604-7.604s-3.404-7.604-7.604-7.604h-3.819
			c0.612-4.789,1.028-9.437,1.238-13.856h3.595c4.199,0,7.604-3.403,7.604-7.604s-3.404-7.604-7.604-7.604h-3.77
			c-0.54-6.433-2.227-19.6-11.248-23.16c-9.08-3.583-17.148,5.76-20.17,9.222c-5.034,5.767-54.413,73.107-63.666,83.276
			c-18.214-10.238-38.297-15.655-58.966-15.655c-20.668,0-40.75,5.417-58.964,15.654c-9.246-10.162-29.543-36.092-32.349-39.894
			c-2.494-3.379-7.256-4.096-10.633-1.602c-3.379,2.494-4.096,7.255-1.602,10.633c2.891,3.916,22.768,29.369,31.623,39.207
			c-16.617,11.368-24.365,22.6-25.835,24.377c-7.36-3.057-14.355-6.157-20.947-9.287c-3.82-8.466-22.47-51.795-18.771-100.193
			c1.053,0.926,2.584,2.469,4.695,5.026c2.672,3.236,7.465,3.696,10.705,1.022c3.238-2.673,3.695-7.466,1.022-10.705
			c-3.633-4.399-12.117-14.665-21.746-11.08c-9.104,3.39-10.707,16.727-11.247,23.16h-3.771c-4.199,0-7.604,3.403-7.604,7.604
			s3.404,7.604,7.604,7.604h3.595c0.21,4.419,0.626,9.067,1.238,13.856h-3.819c-4.199,0-7.604,3.403-7.604,7.604
			s3.404,7.604,7.604,7.604h6.34c0.95,4.679,2.07,9.394,3.347,14.075h-3.809c-4.199,0-7.604,3.403-7.604,7.604
			s3.404,7.604,7.604,7.604h8.555c0.881,2.801,1.847,5.64,2.889,8.511c-0.544-0.306-52.762-31.053-59.704-34.279
			c-4.169-1.936-15.105-6.961-22.177-0.235c-8.101,7.704-3.001,19.591-0.898,25.659l-2.997,0.62
			c-4.112,0.852-6.711,4.865-5.906,8.987c1.532,7.837,8.468,6.013,8.987,5.906l6.064-1.255c1.892,3.749,4.035,7.61,6.391,11.516
			l-1.681,0.348c-4.112,0.852-6.799,4.883-5.906,8.987c1.616,7.427,8.466,6.013,8.987,5.906l7.604-1.573
			c2.348,3.285,4.812,6.546,7.376,9.742c-4.01,0.926-6.55,7.04-4.85,11.74c-2.645-0.338-28.897-3.785-36.552-3.915
			c-4.591-0.075-16.764-0.286-20.364,8.787c-1.312,3.158-1.174,6.744,0.412,10.665c3.05,7.537,11.766,16.87,23.554,26.052
			l-1.799,2.51c-2.446,3.414-1.794,8.362,1.753,10.61c5.358,3.394,9.125,0.319,10.61-1.753l1.813-2.531
			c3.84,2.522,7.864,4.978,12.006,7.329l-2.524,3.524c-2.446,3.414-1.828,8.416,1.753,10.61c5.274,3.232,9.124,0.319,10.61-1.753
			l3.776-5.27c3.085,1.473,6.199,2.868,9.321,4.167c1.119,0.519,2.242,1.019,3.366,1.515c0,0-4.816,7.127,1.297,11.246
			c5.723,3.857,9.125,0.319,10.61-1.753l2.648-3.696c4.552,1.636,9.045,3.105,13.398,4.409c0,0-4.381,6.806,1.512,10.945
			c4.141,2.909,9.125,0.319,10.61-1.753l3.562-4.971c3.044,0.73,5.935,1.376,8.638,1.943c5.477,20.179,17.809,34.731,37.283,44.128
			c25.273,12.195,60.136,13.84,90.906,13.84c30.771,0,65.634-1.644,90.906-13.84c19.474-9.397,31.806-23.949,37.283-44.128
			c2.703-0.567,5.594-1.212,8.638-1.943l3.562,4.971c4.083,5.217,9.192,2.598,10.61,1.753c6.653-3.97,1.512-10.945,1.512-10.945
			c4.353-1.304,8.846-2.772,13.398-4.409l2.648,3.696c4.303,5.491,9.256,2.697,10.61,1.753c6.027-4.203,1.297-11.246,1.297-11.246
			c1.123-0.496,2.247-0.996,3.366-1.515c3.123-1.299,6.236-2.694,9.321-4.167l3.776,5.27c4.575,5.49,9.268,2.714,10.61,1.753
			c3.414-2.445,4.198-7.196,1.753-10.61l-2.524-3.524c4.143-2.351,8.165-4.807,12.006-7.329l1.813,2.531
			c4.238,5.146,9.268,2.714,10.61,1.753c3.414-2.445,4.198-7.196,1.753-10.61l-1.799-2.51c11.789-9.182,20.505-18.516,23.554-26.052
			C512.284,274.223,512.423,270.637,511.11,267.478z M393.456,120.979c6.51,39.854-14.928,91.801-18.748,100.265
			c-6.592,3.13-13.586,6.23-20.947,9.287c-1.47-1.776-13.105-16.473-25.839-24.38C336.782,196.31,388.851,124.976,393.456,120.979z
			 M124.992,333.331c-13.458-3.114-76.319-19.155-108.892-59.319c6.057-0.738,20.246,1.126,31.969,2.666
			c11.669,1.534,61.94,6.745,82.412,5.753C121.598,305.558,124.677,329.821,124.992,333.331z M97.512,266.412
			c-4.482-4.297-8.665-8.637-12.42-12.937c-0.069-0.079-0.14-0.157-0.212-0.233c-24.632-25.942-37.953-55.287-38.994-65.073
			c5.83,1.782,49.552,28.502,61.597,34.736c12.02,6.857,25.93,13.637,41.438,20.21c-5.041,7.611-9.365,15.66-12.909,24.002
			C122.157,267.452,109.262,267.217,97.512,266.412z M256.001,392.285c-73.647,0-116.284-11.434-116.284-69.88
			c0-66.61,54.338-125.039,116.284-125.039s116.284,58.429,116.284,125.039C372.285,380.851,329.648,392.285,256.001,392.285z
			 M363.081,243.114c30.854-13.593,97.206-53.163,103.037-54.946c-13.18,42.62-47.145,73.946-51.627,78.243
			c-11.75,0.806-24.645,1.04-38.5,0.705C372.446,258.773,368.122,250.726,363.081,243.114z M433.854,317.655
			c-0.097,0.039-0.194,0.082-0.29,0.127c-16.174,7.515-33.096,12.435-46.553,15.549c0.314-3.51,0.482-7.146,0.482-10.926
			c0-13.441-2.063-26.937-5.971-39.975c29.934-0.204,70.743-4.219,82.412-5.753c11.723-1.54,25.916-3.403,31.969-2.666
			C490.977,282.531,466.891,303.944,433.854,317.655z"/>
	</g>
</g>
<g>
	<g>
		<path fill="#555" d="M293.986,221.221c-12.172-5.738-24.951-8.648-37.984-8.648c-4.199,0-7.604,3.403-7.604,7.604s3.404,7.604,7.604,7.604
			c10.773,0,21.371,2.421,31.498,7.197c1.048,0.494,7.704,1.47,10.121-3.637C299.417,227.546,297.785,223.012,293.986,221.221z"/>
	</g>
</g>
<g>
	<g>
		<path fill="#555" d="M320.353,239.306c-1.883-1.763-3.832-3.467-5.797-5.065c-3.258-2.649-8.049-2.156-10.697,1.103
			c-2.649,3.258-2.155,8.048,1.102,10.697c1.69,1.375,3.37,2.843,4.995,4.365c1.467,1.374,5.861,3.616,10.748-0.352
			C323.964,247.406,323.418,242.177,320.353,239.306z"/>
	</g>
</g>
<g>
	<g>
		<path fill="#555" d="M178.954,271.001c-11.917,0-21.612,9.695-21.612,21.612c0,11.917,9.695,21.612,21.612,21.612
			c11.918,0,21.612-9.695,21.612-21.612C200.566,280.697,190.871,271.001,178.954,271.001z M178.954,299.016
			c-3.531,0-6.404-2.873-6.404-6.404c0-3.531,2.873-6.404,6.404-6.404c3.532,0,6.404,2.873,6.404,6.404
			C185.359,296.143,182.485,299.016,178.954,299.016z"/>
	</g>
</g>
<g>
	<g>
		<path fill="#555" d="M334.8,271.001c-11.917,0-21.612,9.695-21.612,21.612c0,11.917,9.695,21.612,21.612,21.612
			c11.917,0,21.612-9.695,21.612-21.612C356.411,280.697,346.716,271.001,334.8,271.001z M334.8,299.016
			c-3.531,0-6.404-2.873-6.404-6.404c0-3.531,2.873-6.404,6.404-6.404s6.404,2.873,6.404,6.404
			C341.204,296.143,338.331,299.016,334.8,299.016z"/>
	</g>
</g>
<g>
</g>
<g>
</g>
<g>
</g>
<g>
</g>
<g>
</g>
<g>
</g>
<g>
</g>
<g>
</g>
<g>
</g>
<g>
</g>
<g>
</g>
<g>
</g>
<g>
</g>
<g>
</g>
<g>
</g>
</svg>
